<?xml version="1.0" encoding="UTF-8" standalone="no"?>
<!-- Generator: Adobe Illustrator 21.1.0, SVG Export Plug-In . SVG Version: 6.00 Build 0)  -->

<svg
   xmlns:dc="http://purl.org/dc/elements/1.1/"
   xmlns:cc="http://creativecommons.org/ns#"
   xmlns:rdf="http://www.w3.org/1999/02/22-rdf-syntax-ns#"
   xmlns:svg="http://www.w3.org/2000/svg"
   xmlns="http://www.w3.org/2000/svg"
   xmlns:sodipodi="http://sodipodi.sourceforge.net/DTD/sodipodi-0.dtd"
   xmlns:inkscape="http://www.inkscape.org/namespaces/inkscape"
   version="1.1"
   id="Layer_1"
   x="0px"
   y="0px"
   viewBox="0 0 139.3 60.044998"
   xml:space="preserve"
   sodipodi:docname="100_hover.svg"
   width="139.3"
   height="60.044998"
   inkscape:version="0.92.4 (5da689c313, 2019-01-14)"><metadata
   id="metadata3873"><rdf:RDF><cc:Work
       rdf:about=""><dc:format>image/svg+xml</dc:format><dc:type
         rdf:resource="http://purl.org/dc/dcmitype/StillImage" /><dc:title /></cc:Work></rdf:RDF></metadata><defs
   id="defs3871">
	
	

		
		
		
		
		
		
	</defs><sodipodi:namedview
   pagecolor="#ffffff"
   bordercolor="#666666"
   borderopacity="1"
   objecttolerance="10"
   gridtolerance="10"
   guidetolerance="10"
   inkscape:pageopacity="0"
   inkscape:pageshadow="2"
   inkscape:window-width="1920"
   inkscape:window-height="1017"
   id="namedview3869"
   showgrid="false"
   inkscape:zoom="4.9047733"
   inkscape:cx="70.728873"
   inkscape:cy="24.021127"
   inkscape:window-x="-8"
   inkscape:window-y="-8"
   inkscape:window-maximized="1"
   inkscape:current-layer="Layer_1" />
<style
   type="text/css"
   id="style3848">
	.st0{fill:#005DAB;}
	.st1{fill:#EC1B2E;}
</style>
<polygon
   style="fill:#0080be;fill-opacity:1"
   id="polygon3850"
   points="67.5,134.1 67.5,2.6 0,16.3 0,44.1 33.2,36.9 33.2,134.1 0.9,134.1 0.9,161.4 99.6,161.4 99.6,134.1 "
   class="st0"
   transform="matrix(0.3674675,0,0,0.36769749,0,0.3)" /><path
   class="st0"
   d="M 84.995233,3.4254287 C 80.879597,1.476632 76.286253,0.3 71.398935,0.3 c -17.050492,0 -30.86727,13.273879 -30.86727,29.599648 0,16.362538 13.816778,29.599648 30.86727,29.599648 4.372864,0 8.525246,-0.882474 12.273415,-2.463573 -3.380701,-2.647422 -6.246948,-6.030239 -8.378259,-9.891063 -1.24939,0.294158 -2.535526,0.478007 -3.895156,0.478007 -10.178849,0 -18.446868,-7.942266 -18.446868,-17.723019 0,-9.780753 8.268019,-17.723019 18.446868,-17.723019 1.653604,0 3.196967,0.294158 4.703584,0.698625 2.315046,-3.7505142 5.365026,-6.9862522 8.892714,-9.4498253"
   id="path3852"
   inkscape:connector-curvature="0"
   style="fill:#0080be;stroke-width:0.36758247;fill-opacity:1" /><path
   class="st1"
   d="m 125.74738,5.4477649 c -4.44636,-2.7209615 -9.62765,-4.3020607 -15.17641,-4.3020607 -16.168569,0 -29.287159,13.2738798 -29.287159,29.5996478 0,16.325769 13.11859,29.599648 29.287159,29.599648 5.58551,0 10.7668,-1.617869 15.21316,-4.33883 -3.63793,-2.279725 -6.72466,-5.258074 -9.1132,-8.714431 -1.91083,0.698625 -3.9319,1.176632 -6.09996,1.176632 -9.66439,0 -17.528199,-7.942266 -17.528199,-17.723019 0,-9.780753 7.863809,-17.723019 17.528199,-17.723019 2.13131,0 4.15238,0.441237 6.06321,1.139862 2.38854,-3.419586 5.47527,-6.397936 9.1132,-8.7144301"
   id="path3854"
   inkscape:connector-curvature="0"
   style="fill:#ed323e;stroke-width:0.36758247;fill-opacity:1" /><path
   class="st1"
   d="m 121.63174,12.654636 c -0.40421,0.367697 -0.73493,0.735395 -0.95541,1.176632 -0.22048,0.441237 -0.36747,0.882474 -0.36747,1.36048 -0.0367,0.478007 0.0367,0.919244 0.18373,1.397251 0.14699,0.478007 0.40422,0.882474 0.73494,1.286941 0.36747,0.441237 0.77168,0.735395 1.24939,0.956013 0.44096,0.220619 0.91867,0.330928 1.35963,0.330928 0.47771,0 0.91867,-0.07354 1.35963,-0.220618 0.44096,-0.147079 0.84517,-0.404467 1.21264,-0.735395 l 0.77168,-0.661856 c 0.36747,-0.330927 0.69819,-0.735395 0.91867,-1.139862 0.22048,-0.441237 0.36747,-0.882474 0.44096,-1.360481 0.0735,-0.478006 0,-0.956013 -0.11024,-1.43402 -0.14699,-0.478007 -0.36747,-0.919244 -0.73493,-1.360481 -0.18374,-0.220618 -0.44096,-0.441237 -0.69819,-0.625085 -0.29398,-0.183849 -0.58795,-0.330928 -0.95542,-0.404468 l 0.99216,-0.882474 c 0.18374,-0.183848 0.36747,-0.330927 0.55121,-0.4412365 0.18373,-0.1103093 0.33072,-0.2206185 0.4777,-0.2573883 0.14699,-0.03677 0.29398,-0.03677 0.44096,0 0.14699,0.03677 0.25723,0.147079 0.40422,0.294158 0.0735,0.07354 0.11024,0.1838488 0.11024,0.2941578 0,0.110309 0,0.220619 -0.0735,0.330928 -0.0367,0.110309 -0.11024,0.220618 -0.18374,0.330928 -0.0735,0.110309 -0.18373,0.220618 -0.25723,0.294158 l -0.44096,0.367697 1.13915,1.286941 0.44096,-0.367697 c 0.11024,-0.110309 0.22048,-0.183849 0.36747,-0.220619 0.14699,-0.03677 0.25723,-0.07354 0.40422,-0.110309 0.14698,-0.03677 0.25722,0 0.36746,0.03677 0.11024,0.03677 0.22048,0.110309 0.29398,0.183849 0.0735,0.07354 0.11024,0.147079 0.11024,0.220618 0,0.07354 0,0.183849 -0.0368,0.257388 -0.0367,0.07354 -0.0735,0.147079 -0.11024,0.220619 -0.0367,0.07354 -0.0735,0.110309 -0.11024,0.147079 l -1.06566,0.919244 1.10241,1.286941 1.06565,-0.919244 c 0.22048,-0.183849 0.40422,-0.404467 0.51446,-0.661855 0.11024,-0.257389 0.18373,-0.514777 0.18373,-0.772165 0,-0.257388 -0.0368,-0.514777 -0.11024,-0.808935 -0.0735,-0.257388 -0.22048,-0.514776 -0.40421,-0.735395 -0.14699,-0.183848 -0.29398,-0.294158 -0.44096,-0.404467 -0.14699,-0.110309 -0.33073,-0.183849 -0.47771,-0.220618 -0.14699,-0.03677 -0.33072,-0.07354 -0.51446,-0.11031 -0.18373,0 -0.33072,0 -0.51445,0 0.0367,-0.183848 0.0367,-0.330927 0.0367,-0.514776 0,-0.183849 0,-0.3309278 0,-0.5147765 -0.0367,-0.1838488 -0.0735,-0.3309277 -0.14699,-0.5147765 -0.0735,-0.147079 -0.14699,-0.294158 -0.29398,-0.441237 -0.29397,-0.3676975 -0.62469,-0.6250857 -0.91866,-0.7721647 -0.29398,-0.147079 -0.6247,-0.2206185 -0.95542,-0.2206185 -0.33072,0 -0.66144,0.1103092 -0.99216,0.294158 -0.33072,0.1838487 -0.69819,0.441237 -1.1024,0.8089345 z m 2.16806,0.625085 c 0.25723,-0.220618 0.51446,-0.367697 0.73494,-0.478006 0.22048,-0.11031 0.44096,-0.147079 0.62469,-0.11031 0.22048,0.03677 0.40421,0.11031 0.58795,0.220619 0.18373,0.110309 0.40421,0.294158 0.58795,0.514776 0.36746,0.441237 0.51445,0.882474 0.40421,1.323711 -0.0735,0.478007 -0.40421,0.956014 -0.91867,1.434021 l -0.62469,0.551546 c -0.18374,0.183849 -0.40422,0.294158 -0.66144,0.404467 -0.22048,0.110309 -0.47771,0.147079 -0.69819,0.183849 -0.22048,0 -0.47771,-0.03677 -0.69819,-0.110309 -0.22048,-0.07354 -0.44096,-0.257389 -0.6247,-0.478007 -0.18373,-0.220619 -0.29397,-0.441237 -0.36746,-0.698625 -0.0735,-0.257389 -0.0735,-0.478007 0,-0.735395 0.0367,-0.257389 0.14698,-0.478007 0.29397,-0.698626 0.14699,-0.220618 0.33072,-0.441237 0.51446,-0.625085 z"
   id="path3856"
   inkscape:connector-curvature="0"
   style="fill:#ed323e;stroke-width:0.36758247;fill-opacity:1" /><path
   class="st1"
   d="m 133.75817,43.357376 c 0.5512,0.110309 1.06566,0.110309 1.50662,0.03677 0.4777,-0.07354 0.84517,-0.220619 1.21264,-0.441237 0.33072,-0.220619 0.62469,-0.514777 0.84517,-0.845704 0.22049,-0.330928 0.36747,-0.735395 0.44097,-1.139863 0.0735,-0.367697 0.0367,-0.772164 -0.11024,-1.176632 -0.14699,-0.404467 -0.40422,-0.808934 -0.77169,-1.176632 0.47771,-0.183848 0.84518,-0.404467 1.13915,-0.698625 0.29398,-0.294158 0.47771,-0.625086 0.5512,-1.066322 0.0735,-0.441237 0.0368,-0.845705 -0.14698,-1.176632 -0.18374,-0.367698 -0.47771,-0.698626 -0.84518,-0.992784 0.25723,-0.110309 0.47771,-0.220618 0.66144,-0.367697 0.18374,-0.110309 0.33072,-0.257388 0.47771,-0.404467 0.14699,-0.147079 0.25723,-0.330928 0.33072,-0.514777 0.0735,-0.183849 0.14699,-0.404467 0.18374,-0.625086 0.11024,-0.514776 0.0735,-0.992783 -0.0368,-1.43402 -0.11024,-0.404467 -0.33072,-0.772165 -0.6247,-1.066323 -0.29397,-0.294158 -0.66144,-0.551546 -1.1024,-0.772164 -0.44096,-0.183849 -0.91867,-0.330928 -1.43312,-0.441237 l -1.06566,-0.183849 c -0.58795,-0.07354 -1.17589,-0.110309 -1.76384,0 -0.58795,0.07354 -1.1759,0.257388 -1.76385,0.514776 -0.58794,0.257389 -1.13914,0.625086 -1.6536,1.066323 -0.5512,0.441237 -1.02891,0.992783 -1.46987,1.617869 -0.44096,0.625086 -0.84517,1.360481 -1.17589,2.169415 -0.33073,0.808935 -0.58795,1.728179 -0.77169,2.720962 l -0.25722,1.43402 1.83733,0.330928 0.25723,-1.434021 c 0.11024,-0.661855 0.29397,-1.32371 0.51446,-1.948796 0.22048,-0.625086 0.4777,-1.176632 0.80842,-1.691409 0.33072,-0.514776 0.66145,-0.992783 1.02891,-1.39725 0.36747,-0.404467 0.80843,-0.735395 1.24939,-0.992783 0.44096,-0.257389 0.91867,-0.441237 1.39638,-0.551547 0.47771,-0.110309 0.99216,-0.110309 1.50662,0 l 1.0289,0.147079 c 0.29398,0.03677 0.55121,0.11031 0.80843,0.220619 0.25723,0.07354 0.44096,0.183849 0.6247,0.330928 0.18373,0.147079 0.29397,0.294158 0.36747,0.441237 0.0735,0.183848 0.11024,0.367697 0.0735,0.588316 -0.0368,0.294158 -0.14699,0.514776 -0.25723,0.661855 -0.11024,0.147079 -0.25723,0.257388 -0.40421,0.294158 -0.14699,0.03677 -0.33072,0.07354 -0.5512,0.03677 -0.18374,0 -0.40422,-0.03677 -0.58795,-0.07354 l -2.24155,-0.404467 -0.29398,1.764948 2.24155,0.404467 c 0.22048,0.03677 0.40422,0.07354 0.58795,0.147079 0.18374,0.07354 0.36747,0.147079 0.51446,0.257389 0.14698,0.110309 0.25722,0.257388 0.33072,0.404467 0.0735,0.147079 0.0735,0.330928 0.0367,0.551546 -0.0367,0.220619 -0.11024,0.404467 -0.25722,0.551546 -0.11024,0.110309 -0.25723,0.220619 -0.44096,0.257388 -0.18374,0.03677 -0.36747,0.07354 -0.58795,0.07354 -0.22048,0 -0.44096,-0.03677 -0.66144,-0.07354 l -2.20481,-0.404467 -0.29397,1.764948 2.2048,0.404467 c 0.22048,0.03677 0.44096,0.11031 0.6247,0.183849 0.18373,0.07354 0.36746,0.147079 0.4777,0.294158 0.14699,0.110309 0.22049,0.257388 0.29398,0.441237 0.0367,0.183849 0.0735,0.404467 0,0.661856 -0.0368,0.147079 -0.11024,0.294158 -0.18374,0.441237 -0.11024,0.147079 -0.25722,0.220618 -0.40421,0.330927 -0.18373,0.07354 -0.36747,0.147079 -0.62469,0.147079 -0.25723,0 -0.51446,0 -0.80843,-0.03677 l -0.91867,-0.147079 c -0.22048,-0.03677 -0.51446,-0.147079 -0.80843,-0.294158 -0.29397,-0.147079 -0.58795,-0.330928 -0.88192,-0.588316 -0.29398,-0.220619 -0.58795,-0.514777 -0.84518,-0.808935 -0.25722,-0.294158 -0.4777,-0.661855 -0.66144,-1.029553 l -1.39637,0.992783 c 0.11024,0.294158 0.22048,0.551547 0.40421,0.808935 0.18373,0.257388 0.36747,0.514776 0.62469,0.772165 0.22048,0.257388 0.47771,0.478006 0.73494,0.698625 0.25723,0.220618 0.5512,0.404467 0.80843,0.588316 0.25722,0.183849 0.5512,0.294158 0.80843,0.404467 0.25722,0.110309 0.51445,0.183849 0.73493,0.220619 z"
   id="path3858"
   inkscape:connector-curvature="0"
   style="fill:#ed323e;stroke-width:0.36758247;fill-opacity:1" /><path
   class="st1"
   d="m 124.79196,51.226102 c 0.47771,0.404468 0.95542,0.735395 1.43313,1.066323 0.4777,0.330928 0.99216,0.478007 1.46987,0.588316 0.4777,0.07354 0.99216,0.03677 1.46987,-0.147079 0.4777,-0.183849 0.99216,-0.551546 1.46987,-1.139862 0.33072,-0.367698 0.5512,-0.735395 0.66144,-1.103093 0.14698,-0.367697 0.22048,-0.735395 0.18373,-1.066322 0,-0.330928 -0.0735,-0.698626 -0.18373,-1.029553 -0.11024,-0.330928 -0.29398,-0.661856 -0.47771,-0.956014 -0.18373,-0.294158 -0.44096,-0.588316 -0.69819,-0.882474 -0.25723,-0.257388 -0.51445,-0.514776 -0.80843,-0.772164 l -2.09456,-1.764948 c -0.25723,-0.220619 -0.51446,-0.441237 -0.80843,-0.661856 -0.29397,-0.220618 -0.58795,-0.404467 -0.88192,-0.588316 -0.29398,-0.183849 -0.6247,-0.330928 -0.91867,-0.441237 -0.33072,-0.110309 -0.66144,-0.183849 -0.95542,-0.183849 -0.33072,0 -0.66144,0.03677 -0.99216,0.147079 -0.33072,0.11031 -0.66144,0.294158 -0.99216,0.551547 l 1.35963,1.176632 c 0.11024,-0.11031 0.25723,-0.183849 0.44096,-0.183849 0.18373,0 0.40421,0.07354 0.66144,0.220618 0.25723,0.147079 0.51446,0.330928 0.84518,0.551547 0.33072,0.257388 0.66144,0.514776 1.02891,0.845704 l 2.09456,1.801717 c 0.36747,0.294158 0.66144,0.588316 0.88192,0.845705 0.25723,0.257388 0.44096,0.551546 0.5512,0.808934 0.11024,0.257388 0.14699,0.514777 0.11024,0.772165 -0.0367,0.257388 -0.18373,0.514776 -0.40421,0.772165 -0.18373,0.220618 -0.40421,0.404467 -0.66144,0.478006 -0.22048,0.07354 -0.47771,0.07354 -0.73494,0 -0.25722,-0.07354 -0.5512,-0.220618 -0.84517,-0.404467 -0.29398,-0.183849 -0.6247,-0.441237 -0.99216,-0.735395 l -2.13132,-1.838487 c -0.77168,-0.661856 -1.32288,-1.250172 -1.61685,-1.764948 -0.29398,-0.514777 -0.33072,-0.919244 -0.0735,-1.176632 l -1.50661,-1.066323 c -0.29398,0.551546 -0.40422,1.066323 -0.40422,1.581099 0.0367,0.514777 0.14699,0.992783 0.36747,1.43402 0.22048,0.441237 0.51445,0.882474 0.88192,1.323711 0.36747,0.404468 0.77168,0.808935 1.1759,1.139863 z"
   id="path3860"
   inkscape:connector-curvature="0"
   style="fill:#ed323e;stroke-width:0.36758247;fill-opacity:1" /><path
   class="st1"
   d="m 136.51418,24.163567 c 0.44096,-0.183849 0.80842,-0.441237 1.06565,-0.735395 0.25723,-0.294158 0.47771,-0.625086 0.58795,-0.992783 0.11024,-0.367698 0.14699,-0.735395 0.11024,-1.139862 -0.0368,-0.404468 -0.14699,-0.808935 -0.33072,-1.250172 -0.18373,-0.441237 -0.40421,-0.808934 -0.69819,-1.066323 -0.29397,-0.294157 -0.58795,-0.514776 -0.91867,-0.661855 -0.33072,-0.147079 -0.69819,-0.220618 -1.1024,-0.220618 -0.40421,0 -0.77168,0.110309 -1.1759,0.257388 -0.18373,0.07354 -0.29397,0.147079 -0.40421,0.220618 -0.11024,0.07354 -0.22048,0.147079 -0.29397,0.220619 -0.0735,0.07354 -0.14699,0.147079 -0.22048,0.257388 -0.0735,0.110309 -0.14699,0.220618 -0.22049,0.330928 l 1.02891,1.103092 c 0.14699,-0.147079 0.29398,-0.257388 0.40422,-0.330928 0.11024,-0.07354 0.25723,-0.110309 0.36747,-0.183848 0.33072,-0.147079 0.66144,-0.147079 0.95541,0 0.29398,0.147079 0.51446,0.441237 0.69819,0.808934 0.14699,0.367698 0.18373,0.698625 0.0735,0.992783 -0.11024,0.294158 -0.33072,0.514777 -0.66144,0.661856 l -5.91623,2.500343 c -0.36746,0.147079 -0.73493,0.147079 -1.06565,0 -0.33072,-0.183849 -0.58795,-0.478007 -0.77168,-0.919244 -0.22048,-0.514776 -0.25723,-0.919244 -0.14699,-1.250171 0.11024,-0.330928 0.40421,-0.588316 0.80843,-0.772165 0.22048,-0.110309 0.44096,-0.183849 0.62469,-0.257388 0.18374,-0.07354 0.36747,-0.11031 0.51446,-0.147079 0.14698,-0.03677 0.33072,-0.03677 0.47771,-0.03677 0.14698,0 0.33072,0.03677 0.51445,0.07354 v -1.47079 c -0.25723,-0.07354 -0.47771,-0.147079 -0.69819,-0.183848 -0.22048,-0.03677 -0.40421,-0.07354 -0.62469,-0.03677 -0.22048,0 -0.44096,0.03677 -0.66144,0.110309 -0.22049,0.07354 -0.51446,0.183849 -0.80843,0.294158 -0.40422,0.183849 -0.77168,0.404467 -1.06566,0.735395 -0.29397,0.294158 -0.51445,0.661856 -0.66144,1.029553 -0.14699,0.404467 -0.22048,0.808935 -0.18373,1.250172 0,0.441237 0.11024,0.882474 0.33072,1.36048 0.18373,0.404468 0.40421,0.772165 0.66144,1.103093 0.25723,0.330928 0.58795,0.588316 0.91867,0.772165 0.33072,0.183848 0.73493,0.294158 1.13915,0.330927 0.44096,0.03677 0.88192,-0.07354 1.35963,-0.294158 z"
   id="path3862"
   inkscape:connector-curvature="0"
   style="fill:#ed323e;stroke-width:0.36758247;fill-opacity:1" />
</svg>