<svg xmlns="http://www.w3.org/2000/svg" xmlns:xlink="http://www.w3.org/1999/xlink" width="14" height="15" viewBox="0 0 14 15"><defs><path id="9udpa" d="M1268 293.733v1.957c.001.367-.14.718-.391.967-.25.248-.586.37-.925.338a11.379 11.379 0 0 1-5.207-2.003 12.288 12.288 0 0 1-3.62-3.914 13.6 13.6 0 0 1-1.852-5.656c-.03-.365.082-.726.31-.997.229-.27.552-.425.89-.425h1.81c.606-.006 1.123.474 1.207 1.122.077.626.218 1.241.423 1.833.165.477.06 1.014-.272 1.377l-.766.828c.859 1.633 2.11 2.985 3.62 3.914l.766-.828a1.142 1.142 0 0 1 1.273-.294c.548.22 1.117.374 1.696.457.607.092 1.053.662 1.038 1.324z"/></defs><g><g transform="translate(-1255 -283)"><g><use fill="#fff" fill-opacity="0" stroke="#fff" stroke-linecap="round" stroke-linejoin="round" stroke-miterlimit="50" stroke-width="2" xlink:href="#9udpa"/></g></g></g></svg>